ply
format ascii 1.0
comment Created with the Wolfram Language for Students - Personal Use Only : www.wolfram.com
element vertex 1297
property float x
property float y
property float z
element face 1336
property list uint uint vertex_index
end_header
-2 -1.75 -0.0017452
-2 -1.71429 -0.00193892
-2 -1.5 -0.00405416
-2 -1.25 -0.00798613
-2 -1.14286 -0.00992227
-2 -1 -0.0137463
-2 -0.75 -0.0208914
-2 -0.571428 -0.0264266
-2 -0.5 -0.0282599
-2 -0.25 -0.0341187
-2 -9.99201e-17 -0.0366313
-2 0.25 -0.0341187
-2 0.285714 -0.0337598
-2 0.5 -0.0282599
-2 0.75 -0.0208914
-2 0.857143 -0.0175703
-2 1 -0.0137463
-2 1.25 -0.00798613
-2 1.42857 -0.00475924
-2 1.5 -0.00405416
-2 1.75 -0.0017452
-2 1.85714 -0.00116407
-2 1.92857 -0.000888267
-2 2 -0.000670927
-1.92857 2 -0.000856543
-1.85714 2 -0.00108092
-1.75 2 -0.00151668
-1.5 2 -0.00296507
-1.42857 2 -0.00339946
-1.25 2 -0.00481846
-1 2 -0.0066
-0.857143 2 -0.00753013
-0.75 2 -0.00753776
-0.5 2 -0.00686856
-0.285714 2 -0.00482283
-0.25 2 -0.00421998
-1.38778e-16 2 -4.19225e-18
0.25 2 0.00421998
0.5 2 0.00686856
0.571428 2 0.00755047
0.75 2 0.00753776
1 2 0.0066
1.14286 2 0.00566987
1.25 2 0.00481846
1.5 2 0.00296507
1.71429 2 0.00166193
1.75 2 0.00151668
2 1.75 0.0017452
2 1.71429 0.00193892
2 1.5 0.00405416
2 1.25 0.00798613
2 1.14286 0.00992227
2 1 0.0137463
2 0.75 0.0208914
2 0.571428 0.0264266
2 0.5 0.0282599
2 0.25 0.0341187
2 -1.38778e-16 0.0366313
2 -0.25 0.0341187
2 -0.285714 0.0337598
2 -0.5 0.0282599
2 -0.75 0.0208914
2 -0.857143 0.0175703
2 -1 0.0137463
2 -1.25 0.00798613
2 -1.42857 0.00475924
2 -1.5 0.00405416
2 -1.75 0.0017452
2 -1.85714 0.00116407
2 -1.92857 0.000888267
2 -2 0.000670927
1.92857 -2 0.000856543
1.85714 -2 0.00108092
1.75 -2 0.00151668
1.5 -2 0.00296507
1.42857 -2 0.00339946
1.25 -2 0.00481846
1 -2 0.0066
0.857143 -2 0.00753013
0.75 -2 0.00753776
0.5 -2 0.00686856
0.285714 -2 0.00482283
0.25 -2 0.00421998
-9.99201e-17 -2 -1.56125e-18
-0.25 -2 -0.00421998
-0.5 -2 -0.00686856
-0.571428 -2 -0.00755047
-0.75 -2 -0.00753776
-1 -2 -0.0066
-1.14286 -2 -0.00566987
-1.25 -2 -0.00481846
-1.5 -2 -0.00296507
-1.71429 -2 -0.00166193
-1.75 -2 -0.00151668
-1.96429 -1.75 -0.00192304
-1.85714 -1.85714 -0.00187543
-1.75 -1.75 -0.00407097
-1.07143 0.5 -0.264739
-1 0.428571 -0.306152
-1 0.5 -0.283057
-1.25 1 -0.0938704
-1.25 1.03571 -0.0857914
-1.28571 1 -0.0864382
-1.5 1.07143 -0.0485863
-1.42857 1.14286 -0.0502742
-1.5 1.14286 -0.0438502
-1.42857 1.25 -0.0404642
-1.32143 1.25 -0.0465036
-1.5 1.64286 -0.0103153
-1.42857 1.71429 -0.00982411
-1.5 1.71429 -0.00856879
-0.857143 -1.5 -0.0455017
-0.857143 -1.42857 -0.0534152
-0.928571 -1.5 -0.0441577
-1.42857 1.75 -0.00902103
-1.39286 1.75 -0.00930483
-1 -1.25 -0.0812448
-1 -1.28571 -0.0757908
-0.964286 -1.25 -0.0846837
-0.75 -0.75 -0.242397
-0.857143 -0.857143 -0.1972
-0.75 -0.857143 -0.1974
-1 -0.428571 -0.301114
-0.857143 -0.285714 -0.378902
-1 -0.285714 -0.3321
-0.892857 -0.25 -0.374289
-0.857143 -0.25 -0.384883
-0.821428 -0.25 -0.38922
-0.857143 -1 -0.154281
-1 -1 -0.140525
-0.857143 -0.75 -0.234474
-0.75 -1.32143 -0.0752582
-0.75 -1.42857 -0.0534693
-0.75 -1.89286 -0.0128889
-0.857143 -2 -0.00753013
-0.75 -2 -0.00753776
-1.25 0.75 -0.143014
-1.42857 0.571428 -0.133899
-1.25 0.571428 -0.189791
-1.25 0.178571 -0.247912
-1.42857 -1.33227e-16 -0.185604
-1.25 -9.99201e-17 -0.263079
-1.14286 -1.66533e-16 -0.309564
-1 -0.142857 -0.360448
-1 -9.99201e-17 -0.360347
-1.14286 -1.25 -0.0674892
-1.14286 -1.14286 -0.0838511
-1.25 -1.25 -0.0614497
-1.25 -1.14286 -0.0712598
-1 -1.57143 -0.0349003
-1.14286 -1.71429 -0.0163854
-1 -1.71429 -0.0190734
-1.25 -1.5 -0.0306074
-1.25 -1.53571 -0.0288211
-1.21429 -1.5 -0.0326206
-1 -0.25 -0.339187
-1.10714 -0.25 -0.304085
-1.42857 0.75 -0.105853
-1.25 1.5 -0.0282214
-1.25 1.60714 -0.0192837
-1.35714 1.5 -0.022182
-1 -0.75 -0.210116
-1 -0.714286 -0.222541
-1.03571 -0.75 -0.204026
-1.5 0.5 -0.12133
-1.5 0.571428 -0.116789
-1.5 0.25 -0.150086
-1.5 0.214286 -0.150975
-1.46429 0.25 -0.161015
-1.25 -0.107143 -0.257623
-1.14286 -0.5 -0.238819
-1.14286 -0.571428 -0.223326
-1.07143 -0.5 -0.26222
-1.25 -0.678571 -0.172963
-1.25 -0.571428 -0.189791
-1 -1.14286 -0.0976067
-0.75 -0.285714 -0.379286
-0.75 -0.392857 -0.362387
-0.75 -0.5 -0.326841
-0.75 -0.464286 -0.341811
-0.785714 -0.5 -0.32674
-1.5 -1.5 -0.0192863
-1.71429 -1.71429 -0.00480282
-1.5 -1.71429 -0.00856879
-1.75 -1.71429 -0.00444483
-1.75 1 -0.0308063
-1.75 1.10714 -0.0237021
-1.85714 1 -0.0210742
-2 0.75 -0.0208914
-2 0.571428 -0.0264266
-1.82143 0.75 -0.0371117
-2 1.25 -0.00798613
-2 1.14286 -0.00992227
-1.89286 1.25 -0.0106223
-1.71429 -1.5 -0.0100424
-2 1.75 -0.0017452
-2 1.71429 -0.00193892
-1.96429 1.75 -0.00192304
-1.71429 -1.75 -0.0044102
-1.75 -1.17857 -0.0221007
-1.71429 -1.14286 -0.0245781
-1.75 -1.14286 -0.0227461
-1.92857 -1.92857 -0.00113401
-1.85714 -2 -0.00108092
-1.5 -0.75 -0.0944772
-1.5 -0.642857 -0.111305
-1.60714 -0.75 -0.0774137
-1.5 -1.25 -0.0373829
-1.5 -1.21429 -0.0406529
-1.53571 -1.25 -0.0358422
-1.71429 -1 -0.0340504
-1.57143 -1 -0.0568017
-1.75 0.5 -0.0637685
-1.75 0.535714 -0.0614979
-1.78571 0.5 -0.0575353
-1.75 -0.607143 -0.0594742
-1.71429 -0.571428 -0.0654605
-1.75 -0.571428 -0.0605812
-1 -0.857143 -0.172841
-1.75 1.5 -0.00916369
-1.75 1.67857 -0.00479737
-1.92857 1.5 -0.00477013
-1.42857 -0.25 -0.172873
-1.42857 -0.285714 -0.171054
-1.39286 -0.25 -0.188368
-1.14286 0.25 -0.288331
-1.14286 0.285714 -0.285297
-1.17857 0.25 -0.272836
-1.10714 0.25 -0.304085
-1.14286 0.75 -0.176549
-1.14286 0.857143 -0.148483
-1.25 0.5 -0.19908
-1.25 0.464286 -0.203724
-1.21429 0.5 -0.210258
-1 0.285714 -0.3321
-1.14286 1 -0.116167
-1 1 -0.129923
-1.25 -0.5 -0.205284
-1.25 -0.392857 -0.228523
-1.35714 -0.5 -0.171748
-1.25 0.857143 -0.126186
-1.25 1.89286 -0.00722771
-1.14286 2 -0.00566987
-1.25 2 -0.00481846
-1.14286 1.5 -0.0342609
-1.14286 1.42857 -0.0402194
-1.07143 1.5 -0.0356049
-1 1.25 -0.0758765
-1 1.28571 -0.0686331
-1.03571 1.25 -0.0724376
-1.25 1.32143 -0.0439899
-1.25 1.42857 -0.0341799
-1 -1.75 -0.0177339
-1 -1.85714 -0.0137156
-0.892857 -1.75 -0.0197499
-1 1.75 -0.0172945
-1 1.85714 -0.0119578
-1.10714 1.75 -0.0152785
-1 0.857143 -0.172841
-1.92857 -2 -0.000856543
-2 -2 -0.000670927
-1.14286 -1 -0.116167
0.25 -1 0.089897
0.25 -0.892857 0.110513
0.142857 -1 0.0631504
1.14286 -0.25 0.288331
1.14286 -0.285714 0.285297
1.17857 -0.25 0.272836
1.10714 -0.25 0.304085
1 -1 0.129923
1.14286 -0.857143 0.148483
1 -0.857143 0.172841
1.14286 -1 0.116167
1.14286 -1.5 0.0342609
1.14286 -1.42857 0.0402194
1.07143 -1.5 0.0356049
1 -1.25 0.0758765
1 -1.28571 0.0686331
1.03571 -1.25 0.0724376
1.25 -0.5 0.19908
1.25 -0.464286 0.203724
1.21429 -0.5 0.210258
0.857143 0.25 0.384883
0.857143 0.285714 0.378902
0.821428 0.25 0.38922
1 0.428571 0.301114
1 0.285714 0.3321
0.75 0.75 0.242397
0.857143 0.857143 0.1972
0.75 0.857143 0.1974
1 1 0.140525
1 0.857143 0.172841
0.857143 0.75 0.234474
0.75 0.5 0.326841
0.75 0.464286 0.341811
0.785714 0.5 0.32674
1.25 -1.32143 0.0439899
1.25 -1.42857 0.0341799
1.42857 0.25 0.172873
1.42857 0.285714 0.171054
1.39286 0.25 0.188368
1.75 1.17857 0.0221007
1.71429 1.14286 0.0245781
1.75 1.14286 0.0227461
1.71429 1 0.0340504
1.57143 1 0.0568017
1.5 1.25 0.0373829
1.5 1.21429 0.0406529
1.53571 1.25 0.0358422
2 -1.25 0.00798613
2 -1.14286 0.00992227
1.89286 -1.25 0.0106223
1.71429 0.5 0.0700016
1.71429 0.571428 0.0654605
1.64286 0.5 0.091859
1.5 0.75 0.0944772
1.5 0.642857 0.111305
1.60714 0.75 0.0774137
1.14286 -0.75 0.176549
1.25 -0.75 0.143014
1.71429 1.75 0.0044102
1.71429 1.71429 0.00480282
1.75 1.75 0.00407097
1.5 1.5 0.0192863
1.5 1.71429 0.00856879
2 -1.75 0.0017452
2 -1.71429 0.00193892
1.96429 -1.75 0.00192304
1.75 1.71429 0.00444483
1.75 -1.5 0.00916369
1.75 -1.67857 0.00479737
1.92857 -1.5 0.00477013
1.75 -1 0.0308063
1.75 -1.10714 0.0237021
1.85714 -1 0.0210742
1.71429 1.5 0.0100424
-1.14286 -1.75 -0.0150459
-1.17857 -1.75 -0.0147621
0.857143 1 0.154281
1 -1.75 0.0172945
1 -1.85714 0.0119578
1.10714 -1.75 0.0152785
1.14286 0.5 0.238819
1.14286 0.571428 0.223326
1.07143 0.5 0.26222
1.25 0.678571 0.172963
1.25 0.571428 0.189791
1.5 -1.64286 0.0103153
1.42857 -1.71429 0.00982411
1.5 -1.71429 0.00856879
1 0.75 0.210116
1 0.714286 0.222541
1.03571 0.75 0.204026
1.5 -0.25 0.150086
1.5 -0.214286 0.150975
1.46429 -0.25 0.161015
1.25 1.25 0.0614497
1.14286 1.14286 0.0838511
1.25 1.14286 0.0712598
1.14286 1.75 0.0150459
1.14286 1.71429 0.0163854
1.17857 1.75 0.0147621
1.25 1.5 0.0306074
1.25 1.53571 0.0288211
1.21429 1.5 0.0326206
1 1.14286 0.0976067
1.14286 1.25 0.0674892
1.14286 1 0.116167
1 1.57143 0.0349003
1 1.71429 0.0190734
1 1.25 0.0812448
1 1.28571 0.0757908
0.964286 1.25 0.0846837
1.42857 -0.571428 0.133899
1.25 -0.571428 0.189791
1.25 0.5 0.205284
1.25 0.392857 0.228523
1.35714 0.5 0.171748
0.75 1.89286 0.0128889
0.857143 2 0.00753013
0.75 2 0.00753776
0.75 1.32143 0.0752582
0.857143 1.42857 0.0534152
0.75 1.42857 0.0534693
0.857143 1.5 0.0455017
0.928571 1.5 0.0441577
1.25 -1.89286 0.00722771
1.14286 -2 0.00566987
1.25 -2 0.00481846
1 1.75 0.0177339
1 1.85714 0.0137156
0.892857 1.75 0.0197499
1.25 0.107143 0.257623
1.14286 -1.33227e-16 0.309564
1.25 -9.99201e-17 0.263079
1.42857 -0.5 0.143188
1.5 -0.5 0.12133
1.5 -1.07143 0.0485863
1.42857 -1.14286 0.0502742
1.5 -1.14286 0.0438502
1.25 -1.5 0.0282214
1.25 -1.60714 0.0192837
1.35714 -1.5 0.022182
1.5 0.357143 0.144656
1.5 0.285714 0.149197
1.25 -0.178571 0.247912
1.42857 -1.66533e-16 0.185604
1.5 -0.571428 0.116789
1.42857 -1.25 0.0404642
1.32143 -1.25 0.0465036
1.25 -1 0.0938704
1.25 -1.03571 0.0857914
1.28571 -1 0.0864382
1.42857 -1.75 0.00902103
1.39286 -1.75 0.00930483
-1.75 -1.96429 -0.0017153
-2 -1.92857 -0.000888267
-0.75 -1 -0.154481
-0.75 -1.03571 -0.143751
-0.714286 -1 -0.154547
-0.75 1.5 -0.0455345
-0.75 1.53571 -0.041567
-0.785714 1.5 -0.0455164
-0.75 -1.5 -0.0455558
-0.75 -1.60714 -0.0336857
-0.642857 -1.5 -0.04561
-0.571428 -1.75 -0.0200364
-0.571428 -1.71429 -0.0218202
-0.607143 -1.75 -0.0200339
-0.5 -1.64286 -0.0249178
-0.5 -1.71429 -0.0198495
-0.678571 -0.75 -0.24253
-0.714286 -0.714286 -0.257463
-0.25 -1.39286 -0.0299345
-0.285714 -1.42857 -0.0342109
-0.25 -1.42857 -0.0299345
-0.75 -0.678571 -0.267247
-0.571428 -1.25 -0.0898743
-0.571428 -1.14286 -0.111663
-0.678571 -1.25 -0.0898202
-0.821428 0.25 -0.38922
-0.75 0.178571 -0.409857
-0.75 0.25 -0.389476
-1 1.57143 -0.0309904
-0.857143 1.71429 -0.0217614
-1 1.71429 -0.0190734
-0.5 -0.5 -0.297108
-0.571428 -0.571428 -0.2974
-0.5 -0.571428 -0.270541
-0.5 -1.07143 -0.121436
-0.5 -1.14286 -0.101578
-0.571428 -0.5 -0.320235
-0.857143 0.142857 -0.402825
-1 0.142857 -0.360448
-0.857143 -1.42743e-16 -0.411131
-0.0714286 -0.5 -0.0582426
-1.66533e-16 -0.571428 -1.15648e-16
-9.99201e-17 -0.5 -8.32667e-17
-0.107143 -0.75 -0.0630262
-0.142857 -0.714286 -0.084035
-0.178571 -0.75 -0.0946014
-9.99201e-17 -1.25 -1.249e-17
-1.66533e-16 -1.14286 -4.16334e-17
-0.107143 -1.25 -0.0128291
-9.99201e-17 0.25 -9.99201e-17
-1.66533e-16 0.285714 -1.52656e-16
-0.0357143 0.25 -0.0329147
-0.285714 1.75 -0.0127982
-0.285714 1.71429 -0.0139375
-0.25 1.75 -0.0121953
0.25 -1.75 0.0121953
-9.99201e-17 -2 -1.56125e-18
0.25 -2 0.00421998
-0.142857 -1 -0.0514925
-9.99201e-17 -1 -3.747e-17
-0.25 -0.5 -0.178886
-0.25 -0.535714 -0.171593
-0.214286 -0.5 -0.153224
-9.99201e-17 -1.75 -1.56125e-18
-1.66533e-16 -1.71429 -5.63785e-18
-0.0357143 -1.75 -0.000602854
-0.285714 1.5 -0.0291425
-0.5 1.5 -0.043654
-0.25 -0.25 -0.216293
-0.142857 -0.142857 -0.137144
-0.25 -0.142857 -0.227784
-0.25 -0.0357143 -0.231774
-0.0357143 -0.25 -0.0342859
-0.25 -0.714286 -0.139575
-0.25 -0.607143 -0.163481
-0.25 -1 -0.0855249
-0.25 -1.10714 -0.0663664
-0.25 -1.5 -0.0248662
-0.25 -1.67857 -0.0121953
-0.0714286 -1.5 -0.00348438
-1.33227e-16 -1.42857 -1.17961e-17
0.178571 -1.25 0.0445777
-0.785714 0.5 -0.32674
-0.857143 0.571428 -0.296599
-0.857143 0.5 -0.319372
-0.75 1.25 -0.0896862
-0.857143 1.14286 -0.111362
-0.75 1.14286 -0.111475
-0.5 -0.25 -0.355152
-0.5 -0.214286 -0.364691
-0.535714 -0.25 -0.372308
-0.75 0.392857 -0.362387
-0.714286 0.428571 -0.356882
-0.75 0.428571 -0.353198
-0.5 0.928571 -0.16613
-0.571428 0.857143 -0.197733
-0.5 0.857143 -0.179875
-0.5 -1.75 -0.0180658
-0.5 -1.92857 -0.00914724
-0.321429 -1.75 -0.0131391
-0.25 -1.96429 -0.00421998
-0.285714 -2 -0.00482283
-0.25 -2 -0.00421998
-0.75 -0.178571 -0.409857
-0.714286 -0.142857 -0.420175
-0.75 -0.142857 -0.415837
-0.285714 -1.5 -0.0291425
-0.357143 -1.5 -0.0311132
-0.571428 -1.66533e-16 -0.412241
-0.5 -0.0714286 -0.380848
-0.5 -9.99201e-17 -0.37501
-0.75 -0.107143 -0.417914
-0.535714 0.25 -0.372308
-0.571428 0.285714 -0.379926
-0.571428 0.25 -0.385923
-0.5 0.357143 -0.338371
-0.5 0.285714 -0.345613
-0.75 0.464286 -0.341811
-0.571428 0.428571 -0.34307
-0.607143 0.25 -0.389988
-0.5 -0.642857 -0.255765
-0.857143 1.25 -0.0896321
-0.5 -1.25 -0.0797896
-0.5 -1.35714 -0.0580007
-0.392857 -1.25 -0.0646625
-0.75 1.82143 -0.0164323
-0.571428 2 -0.00755047
-0.75 2 -0.00753776
-1 0.75 -0.200908
-1 0.714286 -0.210263
-0.964286 0.75 -0.206997
-0.928571 0.5 -0.301375
-0.857143 1 -0.154281
-0.857143 1.75 -0.0199825
-0.821428 1.75 -0.019985
-1 1.14286 -0.0976067
-0.75 0.678571 -0.259524
-0.75 0.571428 -0.296899
-0.5 1.75 -0.0187102
-0.5 1.78571 -0.0175708
-0.535714 1.75 -0.0196955
-0.571428 -0.714286 -0.247499
-0.571428 1.42857 -0.0535595
-0.75 1.42857 -0.0534693
-0.571428 1.5 -0.0456247
-0.75 1 -0.154394
-0.75 0.964286 -0.165124
-0.714286 1 -0.154431
-0.571428 0.75 -0.235108
-0.678571 0.75 -0.234807
-0.5 1.42857 -0.0487223
-0.571428 1.25 -0.0898743
-0.642857 -0.5 -0.327141
0.25 -1.5 0.0274004
0.25 -1.46429 0.0299345
0.214286 -1.5 0.0256582
-0.25 0.5 -0.179396
-0.25 0.321429 -0.212341
-0.0714286 0.5 -0.060669
-9.99201e-17 -0.75 -5.82867e-17
-1.38778e-16 -0.857143 -6.59195e-17
0.107143 -0.75 0.0630262
-1.75 1.39286 -0.0115556
-1.71429 1.42857 -0.0117889
-1.75 1.42857 -0.0109102
-1.42857 -0.75 -0.105853
-1.42857 -0.857143 -0.0890253
-1.32143 -0.75 -0.139388
-1.5 -0.928571 -0.0729135
-1.5 -0.857143 -0.0776497
-1.75 1.96429 -0.0017153
-1.71429 2 -0.00166193
-1.75 2 -0.00151668
-1.25 -1 -0.103576
-1.25 -0.964286 -0.111655
-1.28571 -1 -0.0993786
-1.5 1.25 -0.0340402
-1.5 1.35714 -0.0242301
-1.60714 1.25 -0.0244041
-1.5 -0.357143 -0.144656
-1.5 -0.285714 -0.149197
-1.71429 0.5 -0.0700016
-1.71429 0.285714 -0.0836252
-1.71429 -0.5 -0.0700016
-1.64286 -0.5 -0.091859
-1.71429 1.5 -0.0100424
-1.64286 1.5 -0.0112977
-1.5 0.75 -0.0887433
-1.5 0.785714 -0.0831341
-1.53571 0.75 -0.0801885
-1.75 0.25 -0.0777509
-1.75 0.285714 -0.077392
-1.5 -0.25 -0.151016
-1.5 -0.0714286 -0.160109
-1.67857 -0.25 -0.0963725
-1.75 -9.99201e-17 -0.0839747
-1.75 -0.0357143 -0.0836158
-1.71429 -1.66533e-16 -0.0907381
-1.75 0.821428 -0.0413857
-1.71429 0.857143 -0.0435227
-1.75 0.857143 -0.0402787
-1.42857 -1.25 -0.0404642
-1.42857 -1.42857 -0.0241141
-1.5 1.75 -0.00776571
-1.5 1.92857 -0.0037503
-1.67857 1.75 -0.0046274
-2 0.25 -0.0341187
-2 -9.99201e-17 -0.0366313
-1.75 -1.5 -0.00968442
-1.75 -1.46429 -0.0105577
-1.78571 -1.5 -0.00932643
-2 -1.25 -0.00798613
-2 -1.42857 -0.00475924
-1.82143 -1.25 -0.017146
-2 -1.85714 -0.00116407
-2 -0.25 -0.0341187
-2 -0.285714 -0.0337598
-1.96429 -0.25 -0.0408821
-1.42857 -1.5 -0.0205416
-2 -0.75 -0.0208914
-2 -0.857143 -0.0175703
-1.89286 -0.75 -0.0355291
-1.75 -0.5 -0.0651224
-1.75 -0.321429 -0.0764753
-1.92857 -0.5 -0.0407263
-1.25 -1.82143 -0.0115157
-1.42857 -2 -0.00339946
-1.25 -2 -0.00481846
-1.5 -1.75 -0.00817618
-1.5 -1.78571 -0.00778357
-1.46429 -1.75 -0.00880384
-1.5 -1.42857 -0.0210328
-1.25 -1.42857 -0.0341799
-1.75 -1 -0.0322184
-1.75 -0.892857 -0.0393227
-1.85714 -1 -0.0267225
-1.71429 1 -0.0340504
-1.57143 1 -0.0468985
1.92857 1.92857 0.00113401
1.92857 2 0.000856543
1.85714 2 0.00108092
-0.75 0.107143 -0.417914
-0.75 -9.99201e-17 -0.411547
-0.285714 -0.25 -0.246506
-0.285714 -0.285714 -0.242676
-0.428571 -0.428571 -0.296815
-0.5 -0.428571 -0.319943
-0.357143 -0.5 -0.243389
-0.25 -0.285714 -0.212341
-0.5 -0.357143 -0.338371
-0.285714 -0.428571 -0.219135
-0.25 -0.821428 -0.115734
-0.285714 -0.857143 -0.126301
-0.25 -0.857143 -0.110513
-0.25 -0.321429 -0.211128
-0.5 1.71429 -0.0198495
-9.99201e-17 1.25 -2.498e-17
-1.66533e-16 1.42857 -3.1225e-17
-0.178571 1.25 -0.0445777
-0.25 1 -0.089897
-0.25 0.892857 -0.110513
-0.142857 1 -0.0631504
-0.178571 0.75 -0.0946014
-0.25 0.821428 -0.115734
-0.25 0.75 -0.13165
-9.99201e-17 0.75 -5.82867e-17
-1.66533e-16 0.857143 -8.32667e-17
-0.107143 0.75 -0.0630262
-0.25 1.5 -0.0274004
-0.25 1.46429 -0.0299345
-0.214286 1.5 -0.0256582
-0.321429 -0.25 -0.269371
-0.392857 -0.75 -0.192172
-0.285714 -0.75 -0.150142
-0.5 -0.75 -0.218372
-0.5 -0.785714 -0.205931
-0.464286 -0.75 -0.21003
-0.428571 -1 -0.131208
-0.285714 -1 -0.096869
-0.5 0.0714286 -0.380848
-0.428571 0.142857 -0.349455
-0.5 0.142857 -0.376684
-0.5 0.214286 -0.364691
-0.25 0.0357143 -0.230403
-0.285714 -1.42743e-16 -0.263317
-0.25 -9.99201e-17 -0.230403
-0.285714 0.5 -0.203141
-0.285714 0.571428 -0.189963
-0.357143 0.5 -0.243389
-0.5 0.75 -0.21725
-0.5 0.642857 -0.254625
-0.392857 0.75 -0.190463
-0.25 1.17857 -0.0624088
-0.285714 1.14286 -0.0713243
-0.25 1.14286 -0.0624088
-0.25 -0.892857 -0.107599
1.85714 1.85714 0.00187543
1.75 1.96429 0.0017153
-0.25 0.607143 -0.163481
-0.25 0.571428 -0.166218
-0.285714 1 -0.0988125
-0.428571 1 -0.134528
-0.5 1.25 -0.0850371
-0.5 1.21429 -0.0923001
-0.464286 1.25 -0.0826185
2 1.85714 0.00116407
2 1.92857 0.000888267
0.107143 0.75 0.0630262
0.142857 0.714286 0.084035
0.178571 0.75 0.0946014
0.0357143 0.25 0.0342859
0.142857 0.142857 0.137144
0.25 0.25 0.216293
-9.99201e-17 -0.25 -9.99201e-17
-1.42743e-16 -0.285714 -1.26883e-16
0.0357143 -0.25 0.0329147
0.25 0.142857 0.227784
0.25 1.39286 0.0299345
0.285714 1.42857 0.0342109
0.25 1.42857 0.0299345
0.5 0.428571 0.319943
0.428571 0.428571 0.296815
0.5 0.357143 0.338371
0.285714 0.285714 0.242676
0.25 0.285714 0.212341
0.5 -1.5 0.043654
0.285714 -1.71429 0.0139375
0.5 -1.71429 0.0198495
0.25 0.0357143 0.231774
0.357143 0.5 0.243389
0.5 0.5 0.297108
2 -0.75 0.0208914
2 -0.571428 0.0264266
1.82143 -0.75 0.0371117
-9.99201e-17 1.75 -5.20417e-18
-1.33227e-16 1.71429 -1.17961e-17
0.0357143 1.75 0.000602854
0.0714286 0.5 0.0582426
-1.33227e-16 0.571428 -9.15934e-17
-9.99201e-17 0.5 -8.32667e-17
-1.33227e-16 1.14286 -4.44089e-17
0.107143 1.25 0.0128291
0.178571 -0.75 0.0946014
0.25 -0.821428 0.115734
0.25 -0.75 0.13165
0.25 0.714286 0.139575
0.25 0.607143 0.163481
0.25 -0.5 0.179396
0.25 -0.321429 0.212341
0.0714286 -0.5 0.060669
0.25 0.5 0.178886
0.25 0.535714 0.171593
0.214286 0.5 0.153224
0.285714 -1.75 0.0127982
0.285714 0.428571 0.219135
0.428571 1 0.131208
0.5 0.928571 0.16447
0.5 1 0.142953
0.25 -0.607143 0.163481
0.285714 -0.571428 0.189963
0.25 -0.571428 0.166218
0.321429 0.25 0.269371
0.285714 0.25 0.246506
0.25 -9.99201e-17 0.230403
0.25 -0.0357143 0.230403
0.285714 -1.66533e-16 0.263317
0.285714 -0.5 0.203141
0.357143 -0.5 0.243389
0.5 -0.0714286 0.380848
0.428571 -0.142857 0.349455
0.5 -0.142857 0.376684
0.75 0.285714 0.379286
0.75 0.392857 0.362387
1.75 -0.821428 0.0413857
1.71429 -0.857143 0.0435227
1.75 -0.857143 0.0402787
1.71429 -0.285714 0.0836252
1.5 -0.285714 0.149197
1.75 -1.39286 0.0115556
1.71429 -1.42857 0.0117889
1.75 -1.42857 0.0109102
1.5 -0.75 0.0887433
1.5 -0.785714 0.0831341
1.53571 -0.75 0.0801885
1.71429 -1 0.0340504
1.57143 -1 0.0468985
0.5 -0.214286 0.364691
0.5 -0.75 0.21725
0.5 -0.642857 0.254625
0.392857 -0.75 0.190463
0.25 -1.17857 0.0624088
0.285714 -1.14286 0.0713243
0.25 -1.14286 0.0624088
0.285714 1.5 0.0291425
0.357143 1.5 0.0311132
0.5 1.25 0.0797896
0.5 1.35714 0.0580007
0.392857 1.25 0.0646625
0.25 0.821428 0.115734
0.285714 0.857143 0.126301
0.25 0.857143 0.110513
0.25 0.892857 0.107599
0.392857 0.75 0.192172
0.285714 0.75 0.150142
0.285714 1 0.096869
0.5 -1.25 0.0850371
0.5 -1.21429 0.0923001
0.464286 -1.25 0.0826185
0.25 1.5 0.0248662
0.25 1.67857 0.0121953
0.0714286 1.5 0.00348438
0.285714 -1 0.0988125
0.428571 -1 0.134528
0.5 0.75 0.218372
0.5 0.785714 0.205931
0.464286 0.75 0.21003
0.25 0.321429 0.211128
0.75 -1.25 0.0896862
0.571428 -1.42857 0.0535595
0.75 -1.42857 0.0534693
0.571428 -1.25 0.0898743
0.571428 -1.5 0.0456247
0.75 -0.428571 0.353198
0.714286 -0.428571 0.356882
0.75 -0.464286 0.341811
0.25 1.96429 0.00421998
0.285714 2 0.00482283
0.25 2 0.00421998
0.535714 -0.25 0.372308
0.571428 -0.285714 0.379926
0.571428 -0.25 0.385923
0.5 1.75 0.0180658
0.5 1.92857 0.00914724
0.321429 1.75 0.0131391
0.75 -1 0.154394
0.75 -0.964286 0.165124
0.714286 -1 0.154431
0.5 -0.928571 0.16613
0.571428 -0.857143 0.197733
0.5 -0.857143 0.179875
0.571428 -0.75 0.235108
0.678571 -0.75 0.234807
0.75 -1.82143 0.0164323
0.571428 -2 0.00755047
0.75 -2 0.00753776
0.5 -1.75 0.0187102
0.5 -1.78571 0.0175708
0.535714 -1.75 0.0196955
0.75 0.178571 0.409857
0.714286 0.142857 0.420175
0.75 0.142857 0.415837
0.75 -0.392857 0.362387
0.5 -0.357143 0.338371
0.5 -0.285714 0.345613
0.607143 -0.25 0.389988
0.5 -9.99201e-17 0.37501
0.571428 -1.38778e-16 0.412241
0.5 0.0714286 0.380848
0.571428 0.571428 0.2974
0.5 0.571428 0.270541
0.571428 0.142857 0.403913
0.75 0.107143 0.417914
0.5 0.642857 0.255765
0.571428 -0.428571 0.34307
0.5 0.25 0.355152
0.5 0.214286 0.364691
0.535714 0.25 0.372308
1.75 -0.25 0.0777509
1.75 -0.285714 0.077392
0.714286 0.714286 0.257463
0.75 0.678571 0.267247
0.857143 -0.5 0.319372
0.857143 -0.571428 0.296599
0.928571 -0.5 0.301375
0.571428 1.25 0.0898743
0.571428 1.14286 0.111663
0.678571 1.25 0.0898202
0.571428 0.714286 0.247499
0.642857 0.5 0.327141
0.571428 0.5 0.320235
1 -1.57143 0.0309904
0.857143 -1.71429 0.0217614
1 -1.71429 0.0190734
0.678571 0.75 0.24253
0.75 -1.5 0.0455345
0.75 -1.53571 0.041567
0.785714 -1.5 0.0455164
0.5 1.64286 0.0249178
0.571428 1.71429 0.0218202
0.5 1.71429 0.0198495
0.25 1.10714 0.0663664
0.142857 1 0.0514925
0.25 1 0.0855249
0.75 1.5 0.0455558
0.75 1.60714 0.0336857
0.642857 1.5 0.04561
0.571428 1.75 0.0200364
0.607143 1.75 0.0200339
0.857143 -1.75 0.0199825
0.821428 -1.75 0.019985
0.5 1.07143 0.121436
0.5 1.14286 0.101578
0.75 1 0.154481
0.75 1.03571 0.143751
0.714286 1 0.154547
0.857143 -1.25 0.0896321
0.857143 -1.14286 0.111362
0.857143 -1 0.154281
1 -1.14286 0.0976067
0.75 -1.14286 0.111475
0.785714 -0.5 0.32674
1 -0.75 0.200908
1 -0.714286 0.210263
0.964286 -0.75 0.206997
0.821428 -0.25 0.38922
0.75 -0.178571 0.409857
0.75 -0.25 0.389476
1 -0.25 0.339187
1 -0.142857 0.360448
0.892857 -0.25 0.374289
0.75 -0.678571 0.259524
0.75 -0.571428 0.296899
0.75 -9.99201e-17 0.411547
0.75 -0.107143 0.417914
0.857143 -1.66533e-16 0.411131
1 -9.99201e-17 0.360347
0.892857 0.25 0.374289
1.5 0.25 0.151016
1.5 0.0714286 0.160109
1.67857 0.25 0.0963725
1.75 0.607143 0.0594742
1.75 0.571428 0.0605812
1.75 1.5 0.00968442
1.75 1.46429 0.0105577
1.78571 1.5 0.00932643
1.75 0.0357143 0.0836158
1.71429 -1.33227e-16 0.0907381
1.75 -9.99201e-17 0.0839747
1.75 -0.5 0.0637685
1.75 -0.535714 0.0614979
1.78571 -0.5 0.0575353
1.42857 1.42857 0.0241141
1.25 1.42857 0.0341799
2 2 0.000670927
1.5 1.42857 0.0210328
1.25 1.82143 0.0115157
1.42857 2 0.00339946
1.25 2 0.00481846
1.71429 -0.5 0.0700016
1.75 1 0.0322184
1.75 0.892857 0.0393227
1.85714 1 0.0267225
1.42857 1.25 0.0404642
2 1.25 0.00798613
2 1.42857 0.00475924
1.82143 1.25 0.017146
1.5 1.75 0.00817618
1.5 1.78571 0.00778357
1.46429 1.75 0.00880384
2 0.75 0.0208914
2 0.857143 0.0175703
1.89286 0.75 0.0355291
1.25 1 0.103576
1.25 0.964286 0.111655
1.28571 1 0.0993786
1.75 -1.96429 0.0017153
1.71429 -2 0.00166193
1.75 -2 0.00151668
1.71429 -1.5 0.0100424
1.64286 -1.5 0.0112977
1.96429 1.75 0.00192304
1.42857 0.75 0.105853
1.42857 0.857143 0.0890253
1.32143 0.75 0.139388
1.42857 1.5 0.0205416
2 0.25 0.0341187
2 0.285714 0.0337598
1.96429 0.25 0.0408821
1.75 0.5 0.0651224
1.75 0.321429 0.0764753
1.92857 0.5 0.0407263
1.5 -1.25 0.0340402
1.5 -1.35714 0.0242301
1.60714 -1.25 0.0244041
1.5 -1.75 0.00776571
1.5 -1.92857 0.0037503
1.67857 -1.75 0.0046274
1.5 0.928571 0.0729135
1.5 0.857143 0.0776497
1.42857 1.75 0.00902103
1.25 1.75 0.0131218
-0.5 -0.928571 -0.16447
-0.5 -1 -0.142953
-0.285714 0.25 -0.245256
-0.25 0.25 -0.214922
-0.5 -0.285714 -0.345613
0.25 -1.42857 0.0299345
0.25 -1.25 0.0531304
0.75 -0.5 0.326841
1.25 0.285714 0.242456
1.25 0.25 0.24549
1 -1.42857 0.0468173
1 -1.5 0.0389038
-0.321429 0.25 -0.269371
-0.285714 -0.5 -0.204549
0.571428 1 0.154698
0.75 -1.71429 0.0217834
0.75 -1.75 0.0199997
0.571428 0.75 0.235057
-0.25 -0.428571 -0.193472
0.75 1.14286 0.111475
0.75 1.25 0.0897449
1.25 -0.857143 0.126186
-0.5 -0.857143 -0.179875
1.14286 -1.25 0.0674892
1.25 -1.25 0.0548979
1.5 0.571428 0.116789
1.5 0.5 0.126078
-0.25 -0.75 -0.131628
-0.5 1.14286 -0.101578
-0.5 1 -0.144613
-1.71429 -0.75 -0.0517494
-1.75 -0.75 -0.0485053
0.25 0.571428 0.166218
-1.71429 0.25 -0.0845143
1.71429 -1.75 0.0044102
1.75 -1.75 0.00407097
1.42857 -1.5 0.0205416
1.5 -1.5 0.0174603
1 -0.428571 0.306152
1 -0.285714 0.3321
-1.25 -0.857143 -0.126186
-1.25 -0.75 -0.154253
1.14286 -0.5 0.238819
1.07143 -0.5 0.264739
0.25 1.14286 0.0624088
-1.42857 -1 -0.0696498
-1.5 -1 -0.0632257
-1.5 1.42857 -0.0210328
-1.5 1.5 -0.0174603
0.571428 1.5 0.0456247
0.5 1.5 0.0407875
1 -0.5 0.283057
0.75 1.71429 0.0217834
0.75 1.75 0.0200045
0.857143 -1.5 0.0455017
-0.285714 1.25 -0.0574068
-0.25 1.25 -0.0531304
-0.5 0.25 -0.355152
-0.285714 0.75 -0.150174
-1.5 0.857143 -0.0776497
-1.5 1 -0.0582741
-1.71429 1.25 -0.0197821
-1.75 1.25 -0.0179502
-9.99201e-17 1 -4.16334e-17
-1.71429 0.75 -0.0517494
-1.75 0.75 -0.0468702
1.5 -1.42857 0.0210328
1 0.25 0.339187
1.75 0.857143 0.0402787
1.75 0.75 0.0485053
-0.5 -1.42857 -0.0487223
-0.5 -1.5 -0.0407875
-0.571428 1 -0.154698
1.5 1.14286 0.0438502
1.5 1 0.0632257
0.5 0.714286 0.230814
-0.75 0.857143 -0.1974
-0.75 0.75 -0.234674
-0.571428 1.75 -0.0200364
-0.75 1.75 -0.0199997
-0.285714 -1.25 -0.0574068
-0.25 -1.25 -0.0484912
0.75 0.571428 0.296899
0.75 -0.285714 0.379286
-0.5 -0.714286 -0.230814
0.642857 -0.5 0.327141
0.571428 -0.5 0.320235
0.571428 -1.75 0.0200364
0.5 0.142857 0.376684
-0.75 0.285714 -0.379286
-0.642857 0.5 -0.327141
-0.571428 0.5 -0.320235
0.571428 0.25 0.385923
0.607143 0.25 0.389988
0.5 -0.25 0.355152
-0.75 0.5 -0.326841
-0.285714 -1.75 -0.0127982
-0.25 -1.75 -0.011056
-0.5 0.428571 -0.319943
-0.571428 -0.25 -0.385923
-0.607143 -0.25 -0.389988
0.75 0.25 0.389476
1.75 2 0.00151668
0.5 -0.428571 0.319943
1.75 1.42857 0.0109102
1.75 1.25 0.0189034
2 1.75 0.0017452
-0.75 -0.25 -0.389476
-0.75 -0.571428 -0.296899
0.285714 1.75 0.0127982
0.25 1.75 0.011056
-1 0.571428 -0.259963
1.75 -0.571428 0.0605812
1.75 -0.75 0.0468702
-0.75 -1.71429 -0.0217834
-0.75 -1.75 -0.0200045
0.571428 -1 0.154698
0.5 -1 0.144613
0.75 -0.857143 0.1974
0.75 -0.75 0.234674
-0.571428 -1.5 -0.0456247
1.75 0.285714 0.077392
1.75 0.25 0.0782811
1 -0.571428 0.259963
0.857143 -0.75 0.234474
-1.04083e-16 -1.04083e-16 -1.04083e-16
0.25 1.71429 0.0121953
-0.75 -1.14286 -0.111475
-0.75 -1.25 -0.0897449
-0.571428 -1 -0.154698
-0.75 0.142857 -0.415837
-1 0.25 -0.339187
-0.892857 0.25 -0.374289
-0.857143 0.75 -0.234474
-0.857143 0.25 -0.384883
1.75 -1.14286 0.0227461
1.75 -1.25 0.0179502
-0.857143 1.5 -0.0455017
-1 1.5 -0.0389038
-0.75 1.71429 -0.0217834
2 -1.38778e-16 0.0366313
1.71429 1.25 0.0197821
-0.571428 -0.75 -0.235057
1.25 -0.285714 0.242456
1.25 -0.25 0.244275
0.5 -1.14286 0.101578
-1.42857 -0.5 -0.143188
-1.5 -0.5 -0.126078
0.285714 -1.25 0.0574068
-0.857143 -1.25 -0.0896321
-1.25 1.14286 -0.0712598
-1.25 1.25 -0.0548979
-1.42857 1 -0.0696498
1.71429 0.75 0.0517494
-1 -1.42857 -0.0468173
-1 -1.5 -0.0408588
-1.42857 1.5 -0.0205416
0.285714 -1.5 0.0291425
0.5 -0.571428 0.270541
0.5 -0.5 0.297108
-1.14286 1.75 -0.0150459
-1.25 1.75 -0.0125855
0.285714 1.25 0.0574068
0.25 1.25 0.0484912
0.25 0.75 0.131628
1.42857 1 0.0696498
-0.857143 -1.75 -0.0199825
-1.25 0.285714 -0.242456
-1.25 0.25 -0.244275
1 0.142857 0.360448
1.10714 0.25 0.304085
0.5 1.42857 0.0487223
-0.857143 -0.5 -0.317175
-1 -0.5 -0.280538
1.25 -1.14286 0.0712598
1.71429 -1.25 0.0197821
1.42857 -1 0.0696498
1.5 -1 0.0582741
1.14286 0.25 0.288331
-1.42857 0.25 -0.172873
1.71429 -0.75 0.0517494
1.25 1.71429 0.0139249
1.71429 -0.25 0.0845143
1.5 -0.857143 0.0776497
1.14286 1.5 0.0342609
1 1.5 0.0408588
1.42857 -0.75 0.105853
1.14286 0.75 0.176549
1.25 0.75 0.154253
1 0.571428 0.259963
1 0.5 0.280538
1.25 -1.71429 0.0139249
1.25 -1.75 0.0125855
-1 -0.571428 -0.259963
-1.14286 -0.75 -0.176549
1.71429 0.25 0.0845143
-1.25 1.71429 -0.0139249
-1.42857 0.5 -0.143188
0.285714 -0.75 0.150174
0.285714 0.5 0.204549
0.321429 -0.25 0.269371
0.857143 0.5 0.317175
-0.5 0.5 -0.297108
-1.25 -1.71429 -0.0139249
-1.25 -1.75 -0.0131218
-1.14286 -1.5 -0.0342609
1 1.42857 0.0468173
-1.75 1.14286 -0.0227461
-1.75 1.71429 -0.00444483
-1.75 1.75 -0.00407097
1.25 0.857143 0.126186
-1.5 -0.571428 -0.116789
-1.75 -0.857143 -0.0402787
0.857143 1.25 0.0896321
0.25 -0.285714 0.212341
0.25 -0.25 0.214922
0.857143 1.75 0.0199825
-1.75 -1.42857 -0.0109102
-1.75 -1.25 -0.0189034
-1.71429 -1.25 -0.0197821
1.42857 0.5 0.143188
-1.25 -0.285714 -0.242456
-1.25 -0.25 -0.24549
-1.75 -0.285714 -0.077392
-1.75 -0.25 -0.0782811
-1.75 0.571428 -0.0605812
-1.5 -1.14286 -0.0438502
-2 -1.75 -0.0017452
0.25 0.428571 0.193472
-1.42857 -1.75 -0.00902103
-1 1.42857 -0.0468173
-1.75 -2 -0.00151668
-1.14286 1.25 -0.0674892
1.14286 -1.75 0.0150459
0.5 0.285714 0.345613
-2 -1.5 -0.00405416
-2 -0.5 -0.0282599
2 1.5 0.00405416
-0.571428 -0.142857 -0.403913
-1.71429 1.75 -0.0044102
-9.99201e-17 1.5 -1.249e-17
2 -0.5 0.0282599
1.5 -9.99201e-17 0.161887
-1.5 -9.99201e-17 -0.161887
-2 -1 -0.0137463
-2 1.5 -0.00405416
-0.25 -1.71429 -0.0121953
2 1 0.0137463
-0.25 -1.14286 -0.0624088
0.75 -0.142857 0.415837
0.857143 -0.142857 0.402825
0.5 0.857143 0.179875
-0.25 1.42857 -0.0299345
0.857143 -0.25 0.384883
-1.14286 0.5 -0.238819
-9.99201e-17 -1.5 -5.20417e-18
-0.25 0.285714 -0.212341
2 0.5 0.0282599
-2 0.5 -0.0282599
2 -1.5 0.00405416
-2 1 -0.0137463
2 -1 0.0137463
-1.38778e-16 2 -4.19225e-18
-0.25 2 -0.00421998
-0.25 1.71429 -0.0121953
-1.5 0.285714 -0.149197
0.5 -1.42857 0.0487223
2 -0.25 0.0341187
0.25 -1.71429 0.0121953
0.25 -0.857143 0.110513
0.5 -2 0.00686856
0.285714 -0.25 0.245256
1.5 -2 0.00296507
-1.5 -2 -0.00296507
-0.5 -0.142857 -0.376684
-1.5 2 -0.00296507
-0.5 2 -0.00686856
-0.5 -2 -0.00686856
-1.71429 -0.25 -0.0845143
1.42857 -0.25 0.172873
1.75 -1.71429 0.00444483
1 2 0.0066
-0.25 -0.571428 -0.166218
-0.25 0.857143 -0.110513
-1 2 -0.0066
0.5 2 0.00686856
1 -2 0.0066
1.5 2 0.00296507
-1.14286 -0.25 -0.288331
-0.5 0.571428 -0.270541
-1 -2 -0.0066
2 0 1
2 1 2
2 3 4
2 4 5
2 6 7
2 7 8
2 9 10
2 11 12
2 12 13
2 14 15
2 15 16
2 17 18
2 18 19
2 20 21
2 21 22
2 22 23
2 23 24
2 24 25
2 25 26
2 27 28
2 28 29
2 30 31
2 31 32
2 33 34
2 34 35
2 36 37
2 38 39
2 39 40
2 41 42
2 42 43
2 44 45
2 45 46
2 47 48
2 48 49
2 50 51
2 51 52
2 53 54
2 54 55
2 56 57
2 58 59
2 59 60
2 61 62
2 62 63
2 64 65
2 65 66
2 67 68
2 68 69
2 69 70
2 70 71
2 71 72
2 72 73
2 74 75
2 75 76
2 77 78
2 78 79
2 80 81
2 81 82
2 83 84
2 85 86
2 86 87
2 88 89
2 89 90
2 91 92
2 92 93
3 94 95 96
3 97 98 99
3 100 101 102
3 103 104 105
3 106 104 107
3 108 109 110
3 111 112 113
3 114 109 115
3 116 117 118
3 119 120 121
3 122 123 124
3 125 123 126
3 126 123 127
3 128 120 129
3 130 120 119
3 131 112 132
3 133 134 135
3 136 137 138
3 139 140 141
3 142 143 144
3 145 146 147
3 147 146 148
3 149 150 151
3 152 153 154
3 155 143 156
3 157 137 136
3 158 159 160
3 161 162 163
3 164 137 165
3 166 167 168
3 141 169 142
3 170 171 172
3 173 171 174
3 129 146 175
3 176 123 177
3 178 179 180
3 181 182 183
3 96 182 184
3 185 186 187
3 188 189 190
3 191 192 193
3 194 182 181
3 195 196 197
3 198 182 96
3 199 200 201
3 202 203 95
3 204 205 206
3 207 208 209
3 210 200 211
3 212 213 214
3 215 216 217
3 129 120 218
3 219 220 221
3 222 223 224
3 225 226 227
3 228 226 225
3 229 230 136
3 231 232 233
3 98 226 234
3 235 230 236
3 237 238 239
3 136 230 240
3 241 242 243
3 244 245 246
3 247 248 249
3 250 245 251
3 252 253 254
3 255 256 257
3 236 230 258
3 259 202 260
3 261 146 129
3 262 263 264
3 265 266 267
3 268 266 265
3 269 270 271
3 272 270 269
3 273 274 275
3 276 277 278
3 279 280 281
3 282 283 284
3 285 283 286
3 287 288 289
3 290 288 291
3 292 288 287
3 293 294 295
3 296 274 297
3 298 299 300
3 301 302 303
3 304 302 305
3 306 307 308
3 309 310 311
3 312 313 314
3 315 316 317
3 318 270 319
3 320 321 322
3 323 321 324
3 325 326 327
3 322 321 328
3 329 330 331
3 332 333 334
3 335 321 323
3 336 150 337
3 338 288 290
3 339 340 341
3 342 343 344
3 345 343 346
3 347 348 349
3 350 351 352
3 353 354 355
3 356 357 358
3 359 360 361
3 362 363 364
3 290 357 365
3 366 357 356
3 367 357 290
3 368 360 369
3 370 371 372
3 319 373 374
3 375 376 377
3 378 379 380
3 381 382 383
3 384 382 385
3 386 387 388
3 389 390 391
3 392 393 394
3 395 373 396
3 397 398 399
3 400 401 402
3 403 299 404
3 394 405 406
3 396 373 407
3 408 398 409
3 410 411 412
3 413 348 414
3 96 95 415
3 202 259 203
3 202 416 260
3 417 418 419
3 420 421 422
3 423 424 425
3 426 427 428
3 429 427 430
3 431 432 119
3 433 434 435
3 119 432 436
3 437 438 439
3 440 441 442
3 443 444 445
3 446 447 448
3 449 438 450
3 451 447 446
3 452 453 454
3 455 456 457
3 458 459 460
3 461 462 463
3 464 465 466
3 467 468 469
3 470 471 472
3 473 462 474
3 475 476 477
3 478 479 480
3 481 468 482
3 483 484 485
3 485 484 486
3 487 484 483
3 488 459 489
3 490 491 473
3 492 493 494
3 461 495 496
3 497 498 499
3 500 501 502
3 503 504 505
3 506 507 508
3 509 510 511
3 512 513 514
3 515 516 517
3 518 519 520
3 521 434 522
3 523 524 525
3 520 519 526
3 527 528 529
3 530 528 531
3 508 507 532
3 533 507 528
3 529 528 534
3 448 447 535
3 536 501 500
3 537 538 539
3 540 541 542
3 543 544 545
3 499 498 546
3 547 501 236
3 548 444 549
3 236 501 550
3 551 498 552
3 553 554 555
3 432 556 447
3 500 557 558
3 559 557 482
3 560 561 562
3 563 510 564
3 482 557 565
3 566 557 500
3 567 447 451
3 568 569 570
3 571 572 573
3 574 575 576
3 577 578 579
3 580 581 582
3 583 581 584
3 585 586 587
3 588 589 590
3 591 592 593
3 594 223 595
3 596 597 164
3 598 216 599
3 600 578 601
3 602 603 604
3 605 597 606
3 607 608 609
3 610 611 612
3 613 614 615
3 616 617 147
3 618 619 620
3 621 622 605
3 623 624 625
3 626 627 628
3 629 202 95
3 416 202 629
3 630 631 632
3 633 617 181
3 634 635 636
3 637 638 639
3 640 641 642
3 643 644 645
3 181 617 646
3 147 617 647
3 648 649 650
3 651 614 652
3 653 654 655
3 656 454 657
3 658 659 483
3 446 660 661
3 662 660 446
3 483 659 663
3 661 660 664
3 660 665 659
3 666 667 668
3 663 659 669
3 482 468 670
3 671 672 673
3 674 675 676
3 677 678 679
3 680 681 682
3 683 684 685
3 686 659 658
3 687 667 688
3 689 690 691
3 692 693 667
3 694 695 696
3 696 695 697
3 698 699 700
3 701 702 703
3 704 705 706
3 707 708 709
3 668 667 710
3 322 711 712
3 713 702 714
3 715 708 716
3 717 718 719
3 720 653 711
3 721 653 720
3 722 723 724
3 725 726 727
3 728 729 730
3 727 726 731
3 732 733 734
3 735 736 737
3 727 738 739
3 740 741 742
3 731 726 743
3 744 736 745
3 746 747 748
3 749 750 751
3 752 753 754
3 671 755 756
3 757 758 759
3 760 723 761
3 762 763 764
3 765 766 767
3 768 741 470
3 745 736 735
3 736 769 738
3 770 771 772
3 773 774 775
3 776 738 777
3 778 779 780
3 781 774 782
3 783 784 785
3 786 283 787
3 788 789 790
3 396 791 792
3 793 794 795
3 796 797 798
3 799 789 800
3 785 784 801
3 802 803 804
3 805 806 807
3 808 733 809
3 810 811 812
3 813 814 815
3 777 738 727
3 815 814 816
3 817 814 818
3 819 814 770
3 820 821 822
3 823 824 825
3 826 806 827
3 828 829 830
3 739 738 831
3 832 833 834
3 835 833 832
3 836 833 740
3 837 838 839
3 840 841 842
3 843 844 845
3 846 847 848
3 849 850 851
3 852 853 854
3 855 853 856
3 857 858 859
3 860 861 862
3 863 864 865
3 866 838 837
3 867 844 868
3 845 844 869
3 870 871 872
3 745 873 874
3 864 875 871
3 865 864 876
3 874 873 877
3 878 838 844
3 879 880 881
3 882 791 883
3 287 884 885
3 886 887 888
3 889 890 891
3 884 892 873
3 893 873 894
3 895 896 897
3 898 884 287
3 899 900 901
3 902 903 904
3 905 906 907
3 908 909 910
3 911 903 912
3 913 896 914
3 894 873 745
3 915 890 916
3 917 918 919
3 920 921 832
3 922 921 269
3 269 921 923
3 832 921 924
3 925 887 886
3 926 927 928
3 929 930 931
3 932 933 934
3 935 887 936
3 937 938 939
3 939 933 940
3 941 283 282
3 942 943 944
3 653 655 711
3 945 313 946
3 947 948 949
3 950 951 952
3 953 954 955
3 356 956 957
3 653 721 958
3 654 653 958
3 323 956 959
3 960 961 962
3 963 791 396
3 964 965 966
3 967 956 356
3 968 969 970
3 971 972 973
3 974 975 976
3 977 978 979
3 980 981 982
3 983 794 984
3 985 711 322
3 986 987 988
3 989 956 323
3 990 991 992
3 993 994 995
3 996 997 998
3 999 1000 1001
3 1002 987 1003
3 1004 960 1005
3 692 1006 1007
3 710 693 490
3 810 890 889
3 674 708 715
3 683 468 481
3 1008 698 1009
3 339 896 913
3 664 659 1010
3 496 1011 1012
3 1013 887 925
3 300 1014 1015
3 275 1016 1017
3 1018 699 1008
3 1019 660 662
3 1020 915 772
3 914 1021 1022
3 503 659 686
3 475 665 1019
3 1023 884 898
3 669 665 1024
3 891 1025 1026
3 319 270 1027
3 1006 667 1028
3 1029 296 1030
3 314 1031 1032
3 688 666 1033
3 828 892 1023
3 293 873 893
3 846 903 911
3 716 1034 1035
3 212 597 596
3 1036 215 1037
3 932 266 268
3 761 753 1038
3 166 597 1039
3 1040 980 1041
3 1042 347 1043
3 1044 266 1045
3 582 1046 1047
3 204 581 580
3 1048 1044 1049
3 1050 906 905
3 1051 583 1052
3 601 1053 1054
3 219 578 600
3 1055 902 1056
3 1049 1044 1057
3 410 270 272
3 912 1058 1059
3 1060 895 1017
3 1061 707 1062
3 1063 695 1018
3 1064 713 679
3 525 695 694
3 652 1065 1066
3 185 614 651
3 1067 577 1068
3 571 702 701
3 906 755 1069
3 823 733 808
3 1070 613 1071
3 984 1072 1043
3 1073 283 941
3 926 270 318
3 976 1074 1075
3 522 1076 1077
3 1078 509 1035
3 305 1079 1080
3 877 892 1081
3 564 1082 1083
3 492 434 521
3 1084 540 1085
3 1086 433 1087
3 876 871 937
3 717 557 566
3 885 873 1088
3 964 302 304
3 247 501 536
3 420 557 559
3 820 833 835
3 560 501 547
3 869 1089 931
3 535 556 1090
3 1091 878 1092
3 1093 857 1022
3 872 875 1094
3 704 510 563
3 534 1095 442
3 1096 533 1097
3 1098 864 1099
3 1100 844 843
3 1095 507 506
3 1063 528 527
3 1101 507 1096
3 1089 838 866
3 1102 515 1103
3 1104 528 530
3 1105 519 1106
3 1099 863 1107
3 712 655 1108
3 1109 844 867
3 970 1110 1111
3 1112 711 985
3 657 519 523
3 1106 518 1113
3 436 447 1114
3 1115 840 1116
3 546 1117 99
3 802 853 855
3 748 1118 1119
3 460 488 1033
3 574 459 458
3 512 427 426
3 428 1120 1121
3 1122 852 1123
3 255 444 548
3 856 1124 1125
3 1126 429 1077
3 992 1127 1128
3 888 1129 1057
3 942 299 298
3 728 484 487
3 1130 935 1125
3 700 484 1131
3 849 921 922
3 553 468 467
3 751 1132 1116
3 971 321 320
3 276 921 920
3 1101 498 497
3 439 1133 1134
3 1135 449 1007
3 993 313 312
3 899 833 836
3 1136 454 656
3 1137 453 1138
3 1139 551 1083
3 1138 452 1140
3 311 1141 1142
3 1143 443 1144
3 549 1145 1085
3 952 882 1146
3 178 447 567
3 1147 301 1111
3 1148 432 431
3 1013 838 1091
3 537 438 437
3 689 556 1148
3 947 321 335
3 607 223 222
3 267 1149 1150
3 827 1151 1123
3 1152 594 1153
3 1154 805 1012
3 423 112 111
3 161 120 130
3 999 348 413
3 1155 131 1134
3 879 738 776
3 591 104 106
3 107 1156 1157
3 1158 103 1066
3 1159 945 1075
3 113 1160 1161
3 1162 108 1054
3 602 137 157
3 262 806 826
3 568 741 1163
3 782 1164 1165
3 417 120 128
3 1166 241 1167
3 1168 732 1169
3 818 813 1170
3 100 230 235
3 1171 1002 1080
3 1172 133 1121
3 1137 226 228
3 227 1173 1174
3 1073 1175 1176
3 809 1177 1056
3 1178 122 1179
3 155 123 125
3 409 1180 1030
3 1181 793 1142
3 907 814 819
3 1182 397 1183
3 127 176 1113
3 1176 393 1184
3 996 398 408
3 1185 139 1174
3 762 774 781
3 1186 788 1119
3 389 360 359
3 361 1187 1005
3 329 794 983
3 370 357 366
3 1188 791 882
3 800 1189 1183
3 1190 368 1191
3 1184 392 1015
3 1192 373 319
3 1193 345 1194
3 375 343 342
3 796 373 1192
3 344 1195 1196
3 353 791 1188
3 977 357 367
3 414 1197 1198
3 332 789 799
3 172 1199 1179
3 1200 173 1047
3 279 373 395
3 953 791 963
3 1201 950 1128
3 618 109 114
3 115 1202 1167
3 231 137 1203
3 1204 773 759
3 765 769 1205
3 237 171 170
3 1100 784 1206
3 1207 285 1196
3 284 786 1107
3 1097 1104 1208
3 780 783 870
3 252 150 336
3 337 1209 1210
3 1211 149 1161
3 116 146 145
3 588 146 261
3 385 1212 1191
3 637 216 598
3 193 1213 1068
3 680 723 722
3 464 726 725
3 306 956 967
3 724 760 1170
3 197 1214 1215
3 988 1216 1194
3 599 1217 1153
3 860 741 768
3 917 288 338
3 636 1218 1037
3 1219 381 1026
3 730 1220 1221
3 1222 378 1059
3 628 1223 1224
3 1225 199 1224
3 362 956 989
3 1226 403 1032
3 224 1227 1228
3 632 1229 1230
3 190 1231 1071
3 211 1232 1052
3 350 288 292
3 543 230 229
3 756 1050 1169
3 315 987 986
3 743 1131 778
3 400 274 273
3 1233 95 94
3 152 617 633
3 207 617 616
3 158 245 244
3 831 769 1234
3 648 200 210
3 1235 640 1210
3 246 1236 1144
3 415 203 1237
3 908 382 384
3 1205 736 744
3 1238 250 1157
3 643 182 198
3 1239 386 1198
3 623 182 194
3 737 738 1240
3 576 758 757
3 308 302 1147
3 545 498 1139
3 604 614 1070
3 625 627 1241
3 264 575 474
3 862 858 1093
3 163 171 1200
3 593 578 1067
3 812 733 1168
3 372 382 1219
3 798 789 1186
3 639 631 1242
3 1140 441 440
3 1001 981 1040
3 645 641 1235
3 949 969 1243
3 505 1244 1105
3 590 581 1051
3 620 586 1245
3 364 360 1190
3 239 223 1152
3 825 750 1246
3 352 343 1193
3 804 774 1204
3 206 216 1036
3 767 753 752
3 154 150 1211
3 955 747 1247
3 555 541 1084
3 881 875 1098
3 562 510 1078
3 514 516 1102
3 406 354 1248
3 612 608 1249
3 650 635 1250
3 910 903 1055
3 160 109 1162
3 944 951 1201
3 377 299 1226
3 391 379 1222
3 180 123 1178
3 928 887 1130
3 317 313 1159
3 221 196 1251
3 480 1252 1103
3 412 398 1182
3 979 987 1171
3 966 975 1253
3 463 1254 1087
3 249 245 1238
3 939 1255 1256
3 278 274 1029
3 685 672 1246
3 770 1257 771
3 673 1258 1062
3 901 896 1060
3 934 1256 1259
3 233 226 1260
3 676 681 1069
3 257 242 1166
3 570 495 1261
3 1260 98 97
3 1259 930 929
3 466 1262 1009
3 848 841 1115
3 830 814 817
3 919 890 1020
3 341 387 1239
3 822 806 1154
3 719 708 1061
3 973 961 1004
3 995 991 1263
3 281 266 1048
3 419 438 1135
3 295 283 1207
3 102 104 1158
3 764 729 457
3 214 189 1264
3 168 140 1185
3 573 465 754
3 209 200 1225
3 422 444 1143
3 539 434 1086
3 254 134 1172
3 691 667 687
3 331 326 1265
3 187 192 1266
3 118 112 1155
3 402 348 1042
3 334 310 1267
3 998 794 1181
3 851 853 1122
3 706 702 1064
3 494 479 1261
3 425 427 1126
3 682 678 677
3 477 456 455
3 960 1004 961
3 469 1268 1269
3 693 710 667
3 890 810 916
3 708 674 709
3 468 683 1270
3 698 1008 699
3 896 339 897
3 659 664 660
3 1011 496 495
3 469 749 1268
3 887 1013 936
3 1014 300 299
3 1016 275 274
3 699 1018 695
3 660 1019 665
3 915 1020 890
3 1021 914 896
3 659 503 1010
3 665 475 1024
3 884 1023 892
3 665 669 659
3 1025 891 890
3 667 1006 692
3 296 1029 274
3 1031 314 313
3 666 688 667
3 892 828 1081
3 1270 469 468
3 873 293 1088
3 903 846 904
3 1034 716 708
3 597 212 606
3 1271 164 597
3 215 1036 216
3 266 932 1045
3 753 761 723
3 597 166 1271
3 980 1040 981
3 347 1042 348
3 1046 582 581
3 581 204 584
3 1044 1048 266
3 605 1039 597
3 906 1050 755
3 583 1051 581
3 1053 601 578
3 578 219 579
3 902 1055 903
3 270 410 1027
3 1058 912 903
3 895 1060 896
3 707 1061 708
3 695 1063 697
3 713 1064 702
3 695 525 699
3 1065 652 614
3 614 185 615
3 577 1067 578
3 702 571 714
3 733 823 734
3 613 1070 614
3 1072 984 794
3 283 1073 286
3 270 926 271
3 1074 976 975
3 1076 522 434
3 509 1078 510
3 1079 305 302
3 892 877 873
3 1082 564 510
3 434 492 435
3 540 1084 541
3 433 1086 434
3 871 876 864
3 557 717 565
3 873 885 884
3 1272 740 833
3 302 964 303
3 501 247 550
3 557 420 558
3 833 820 1272
3 501 560 502
3 1089 869 844
3 556 535 447
3 878 1091 838
3 857 1093 858
3 875 872 871
3 510 704 511
3 1095 534 528
3 533 1096 507
3 864 1098 875
3 844 1100 868
3 507 1095 528
3 528 1063 531
3 507 1101 532
3 838 1089 844
3 515 1102 516
3 528 1104 533
3 519 1105 1244
3 863 1099 864
3 1244 523 519
3 655 712 711
3 844 1109 878
3 1110 970 969
3 711 1112 720
3 519 657 526
3 518 1106 519
3 447 436 432
3 470 478 471
3 840 1115 841
3 1117 546 498
3 853 802 854
3 1118 748 747
3 488 460 459
3 459 574 456
3 427 512 430
3 1120 428 427
3 852 1122 853
3 444 255 445
3 1124 856 853
3 429 1126 427
3 1127 992 991
3 1129 888 887
3 299 942 404
3 484 728 1131
3 935 1130 887
3 484 700 486
3 921 849 924
3 468 553 670
3 1132 751 750
3 321 971 324
3 921 276 923
3 498 1101 552
3 1133 439 438
3 449 1135 438
3 313 993 946
3 833 899 834
3 453 144 454
3 454 1136 452
3 551 1139 498
3 452 1138 453
3 1141 311 310
3 443 1143 444
3 1273 1146 882
3 1145 549 444
3 447 178 1114
3 301 1147 302
3 432 1148 556
3 838 1013 839
3 438 537 450
3 556 689 1090
3 321 947 328
3 223 607 595
3 1149 267 266
3 1151 827 806
3 594 1152 223
3 805 1154 806
3 112 423 132
3 120 161 218
3 348 999 349
3 131 1155 112
3 738 879 1240
3 104 591 105
3 1156 107 104
3 103 1158 104
3 945 1159 313
3 164 1203 137
3 1160 113 112
3 740 1163 741
3 108 1162 109
3 137 602 165
3 806 262 807
3 741 568 1274
3 1164 782 774
3 1274 470 741
3 120 417 121
3 241 1166 242
3 732 1168 733
3 813 818 814
3 230 100 240
3 1002 1171 987
3 133 1172 134
3 226 1137 234
3 1173 227 226
3 1177 809 733
3 122 1178 123
3 123 155 124
3 1180 409 398
3 793 1181 794
3 814 907 816
3 397 1182 398
3 176 127 123
3 393 1176 1175
3 398 996 399
3 139 1185 140
3 774 762 775
3 788 1186 789
3 360 389 369
3 1187 361 360
3 794 329 795
3 357 370 365
3 1189 800 789
3 368 1190 360
3 392 1184 393
3 345 1193 343
3 343 375 346
3 373 796 407
3 1195 344 343
3 1175 940 393
3 791 353 792
3 357 977 358
3 1197 414 348
3 789 332 790
3 1199 172 171
3 173 1200 171
3 373 279 374
3 791 953 883
3 950 1201 951
3 109 618 110
3 1202 115 109
3 137 231 138
3 773 1204 774
3 769 765 1234
3 171 237 174
3 784 1100 801
3 285 1207 283
3 786 284 283
3 1104 1097 533
3 783 780 784
3 150 252 151
3 1209 337 150
3 149 1211 150
3 146 116 175
3 146 588 148
3 1212 385 382
3 216 637 217
3 1213 193 192
3 723 680 753
3 726 464 1131
3 956 306 959
3 760 724 723
3 1214 197 196
3 1216 988 987
3 1217 599 216
3 741 860 742
3 288 917 289
3 1218 636 635
3 381 1219 382
3 1220 730 729
3 378 1222 379
3 610 605 622
3 1223 628 627
3 199 1225 200
3 956 362 957
3 403 1226 299
3 1227 224 223
3 1229 632 631
3 1231 190 189
3 1232 211 200
3 288 350 291
3 230 543 258
3 1050 756 755
3 987 315 1003
3 1131 743 726
3 274 400 297
3 95 1233 629
3 617 152 647
3 617 207 646
3 245 158 251
3 769 831 738
3 200 648 201
3 640 1235 641
3 1236 246 245
3 203 415 95
3 382 908 383
3 736 1205 769
3 250 1238 245
3 182 643 183
3 386 1239 387
3 182 623 184
3 738 737 736
3 1275 576 575
3 758 576 1275
3 1079 308 307
3 302 308 1079
3 1117 545 544
3 498 545 1117
3 1065 604 603
3 614 604 1065
3 1223 625 624
3 627 625 1223
3 1275 264 263
3 575 264 1275
3 1276 862 861
3 858 862 1276
3 1199 163 162
3 171 163 1199
3 1053 593 592
3 578 593 1053
3 1177 812 811
3 733 812 1177
3 1221 780 779
3 1277 780 1221
3 1212 372 371
3 382 372 1212
3 1189 798 797
3 789 798 1189
3 1229 639 638
3 631 639 1229
3 585 1245 586
3 1215 1245 585
3 1136 1140 452
3 441 1140 1136
3 1278 1001 1000
3 981 1001 1278
3 1279 645 644
3 641 645 1279
3 1110 949 948
3 969 949 1110
3 1280 505 504
3 1244 505 1280
3 1046 590 589
3 581 590 1046
3 1281 620 619
3 586 620 1281
3 1187 364 363
3 360 364 1187
3 1109 1092 878
3 1165 1092 1109
3 1227 239 238
3 223 239 1227
3 1132 825 824
3 750 825 1132
3 1195 352 351
3 343 352 1195
3 1164 804 803
3 774 804 1164
3 1217 206 205
3 216 206 1217
3 1038 767 766
3 753 767 1038
3 1209 154 153
3 150 154 1209
3 1118 955 954
3 747 955 1118
3 1282 555 554
3 541 555 1282
3 1094 881 880
3 875 881 1094
3 1082 562 561
3 510 562 1082
3 1280 523 1244
3 524 523 1280
3 1206 780 1277
3 784 780 1206
3 1283 514 513
3 516 514 1283
3 1230 612 611
3 1284 612 1230
3 1150 406 405
3 1285 406 1150
3 355 406 1285
3 354 406 355
3 609 612 1284
3 608 612 609
3 1218 650 649
3 635 650 1218
3 1058 910 909
3 903 910 1058
3 1202 160 159
3 109 160 1202
3 1248 944 943
3 951 944 1248
3 1014 377 376
3 299 377 1014
3 1286 327 326
3 1041 327 1286
3 1287 391 390
3 379 391 1287
3 177 180 179
3 123 180 177
3 1129 928 927
3 887 928 1129
3 1031 317 316
3 313 317 1031
3 1214 221 220
3 196 221 1214
3 1252 480 479
3 1180 412 411
3 398 412 1180
3 1216 979 978
3 987 979 1216
3 1074 966 965
3 975 966 1074
3 1254 463 462
3 489 456 1288
3 459 456 489
3 1236 249 248
3 245 249 1236
3 1255 939 938
3 1016 278 277
3 274 278 1016
3 1258 685 684
3 672 685 1258
3 1257 770 814
3 1258 673 672
3 1021 901 900
3 896 901 1021
3 1256 934 933
3 1173 233 232
3 226 233 1173
3 1289 676 675
3 681 676 1289
3 1290 257 256
3 242 257 1290
3 1011 570 569
3 495 570 1011
3 98 1260 226
3 1255 1259 1256
3 930 1259 1255
3 933 939 1256
3 1262 466 465
3 1291 848 847
3 841 848 1291
3 1257 830 829
3 814 830 1257
3 1025 919 918
3 890 919 1025
3 1292 341 340
3 387 341 1292
3 1151 822 821
3 806 822 1151
3 1034 719 718
3 708 719 1034
3 1293 973 972
3 961 973 1293
3 1127 995 994
3 991 995 1127
3 1149 281 280
3 266 281 1149
3 1228 142 169
3 1294 142 1228
3 1133 419 418
3 438 419 1133
3 1295 703 702
3 1208 703 1295
3 787 295 294
3 283 295 787
3 1156 102 101
3 104 102 1156
3 1220 764 763
3 729 764 1220
3 1231 214 213
3 189 214 1231
3 1249 168 167
3 140 168 1249
3 1262 573 572
3 465 573 1262
3 1232 209 208
3 200 209 1232
3 1145 422 421
3 444 422 1145
3 1076 539 538
3 434 539 1076
3 1296 254 253
3 134 254 1296
3 1028 691 690
3 667 691 1028
3 1286 331 330
3 326 331 1286
3 1213 187 186
3 192 187 1213
3 1160 118 117
3 112 118 1160
3 1197 402 401
3 348 402 1197
3 1141 334 333
3 310 334 1141
3 1072 998 997
3 794 998 1072
3 1124 851 850
3 853 851 1124
3 1295 706 705
3 702 706 1295
3 1252 494 493
3 479 494 1252
3 1120 425 424
3 427 425 1120
3 1254 473 491
3 462 473 1254
3 156 142 1294
3 143 142 156
3 1289 682 681
3 678 682 1289
3 1288 477 476
3 456 477 1288
